<?xml version="1.0" encoding="us-ascii" standalone="no"?><svg xmlns="http://www.w3.org/2000/svg" xmlns:xlink="http://www.w3.org/1999/xlink" contentStyleType="text/css" height="506px" preserveAspectRatio="none" style="width:466px;height:506px;background:#FFFFFF;" version="1.1" viewBox="0 0 466 506" width="466px" zoomAndPan="magnify"><defs/><g><!--class Matriz--><g id="elem_Matriz"><rect codeLine="1" fill="#F1F1F1" height="80.5938" id="Matriz" rx="2.5" ry="2.5" style="stroke:#181818;stroke-width:0.5;" width="204" x="141" y="7"/><ellipse cx="216.25" cy="23" fill="#ADD1B2" rx="11" ry="11" style="stroke:#181818;stroke-width:1.0;"/><path d="M218.5938,18.6719 C217.6563,18.2344 217.0625,18.0938 216.1875,18.0938 C213.5625,18.0938 211.5625,20.1719 211.5625,22.8906 L211.5625,24.0156 C211.5625,26.5938 213.6719,28.4844 216.5625,28.4844 C217.7813,28.4844 218.9375,28.1875 219.6875,27.6406 C220.2656,27.2344 220.5938,26.7813 220.5938,26.3906 C220.5938,25.9375 220.2031,25.5469 219.7344,25.5469 C219.5156,25.5469 219.3125,25.625 219.125,25.8125 C218.6719,26.2969 218.6719,26.2969 218.4844,26.3906 C218.0625,26.6563 217.375,26.7813 216.6094,26.7813 C214.5625,26.7813 213.2656,25.6875 213.2656,23.9844 L213.2656,22.8906 C213.2656,21.1094 214.5156,19.7969 216.25,19.7969 C216.8281,19.7969 217.4375,19.9531 217.9063,20.2031 C218.3906,20.4844 218.5625,20.7031 218.6563,21.1094 C218.7188,21.5156 218.75,21.6406 218.8906,21.7656 C219.0313,21.9063 219.2656,22.0156 219.4844,22.0156 C219.75,22.0156 220.0156,21.875 220.1875,21.6563 C220.2969,21.5 220.3281,21.3125 220.3281,20.8906 L220.3281,19.4688 C220.3281,19.0313 220.3125,18.9063 220.2188,18.75 C220.0625,18.4844 219.7813,18.3438 219.4844,18.3438 C219.1875,18.3438 218.9844,18.4375 218.7656,18.75 L218.5938,18.6719 Z " fill="#000000"/><text fill="#000000" font-family="sans-serif" font-size="14" lengthAdjust="spacing" textLength="45" x="236.75" y="27.8467">Matriz</text><line style="stroke:#181818;stroke-width:0.5;" x1="142" x2="344" y1="39" y2="39"/><rect fill="none" height="6" style="stroke:#C82930;stroke-width:1.0;" width="6" x="149" y="49.6484"/><text fill="#000000" font-family="sans-serif" font-size="14" lengthAdjust="spacing" textLength="178" x="161" y="55.9951">elementos: List[List[int]]</text><line style="stroke:#181818;stroke-width:0.5;" x1="142" x2="344" y1="63.2969" y2="63.2969"/><ellipse cx="152" cy="76.9453" fill="#84BE84" rx="3" ry="3" style="stroke:#038048;stroke-width:1.0;"/><text fill="#000000" font-family="sans-serif" font-size="14" lengthAdjust="spacing" textLength="170" x="161" y="80.292">__init__(elementos: list)</text></g><!--class Traspuesta--><g id="elem_Traspuesta"><rect codeLine="6" fill="#F1F1F1" height="96.8906" id="Traspuesta" rx="2.5" ry="2.5" style="stroke:#181818;stroke-width:0.5;" width="228" x="7" y="148"/><ellipse cx="77.25" cy="164" fill="#ADD1B2" rx="11" ry="11" style="stroke:#181818;stroke-width:1.0;"/><path d="M79.5938,159.6719 C78.6563,159.2344 78.0625,159.0938 77.1875,159.0938 C74.5625,159.0938 72.5625,161.1719 72.5625,163.8906 L72.5625,165.0156 C72.5625,167.5938 74.6719,169.4844 77.5625,169.4844 C78.7813,169.4844 79.9375,169.1875 80.6875,168.6406 C81.2656,168.2344 81.5938,167.7813 81.5938,167.3906 C81.5938,166.9375 81.2031,166.5469 80.7344,166.5469 C80.5156,166.5469 80.3125,166.625 80.125,166.8125 C79.6719,167.2969 79.6719,167.2969 79.4844,167.3906 C79.0625,167.6563 78.375,167.7813 77.6094,167.7813 C75.5625,167.7813 74.2656,166.6875 74.2656,164.9844 L74.2656,163.8906 C74.2656,162.1094 75.5156,160.7969 77.25,160.7969 C77.8281,160.7969 78.4375,160.9531 78.9063,161.2031 C79.3906,161.4844 79.5625,161.7031 79.6563,162.1094 C79.7188,162.5156 79.75,162.6406 79.8906,162.7656 C80.0313,162.9063 80.2656,163.0156 80.4844,163.0156 C80.75,163.0156 81.0156,162.875 81.1875,162.6563 C81.2969,162.5 81.3281,162.3125 81.3281,161.8906 L81.3281,160.4688 C81.3281,160.0313 81.3125,159.9063 81.2188,159.75 C81.0625,159.4844 80.7813,159.3438 80.4844,159.3438 C80.1875,159.3438 79.9844,159.4375 79.7656,159.75 L79.5938,159.6719 Z " fill="#000000"/><text fill="#000000" font-family="sans-serif" font-size="14" lengthAdjust="spacing" textLength="79" x="97.75" y="168.8467">Traspuesta</text><line style="stroke:#181818;stroke-width:0.5;" x1="8" x2="234" y1="180" y2="180"/><rect fill="none" height="6" style="stroke:#C82930;stroke-width:1.0;" width="6" x="15" y="190.6484"/><text fill="#000000" font-family="sans-serif" font-size="14" lengthAdjust="spacing" textLength="101" x="27" y="196.9951">matriz: Matriz</text><line style="stroke:#181818;stroke-width:0.5;" x1="8" x2="234" y1="204.2969" y2="204.2969"/><ellipse cx="18" cy="217.9453" fill="#84BE84" rx="3" ry="3" style="stroke:#038048;stroke-width:1.0;"/><text fill="#000000" font-family="sans-serif" font-size="14" lengthAdjust="spacing" textLength="163" x="27" y="221.292">__init__(matriz: Matriz)</text><ellipse cx="18" cy="234.2422" fill="#84BE84" rx="3" ry="3" style="stroke:#038048;stroke-width:1.0;"/><text fill="#000000" font-family="sans-serif" font-size="14" lengthAdjust="spacing" textLength="202" x="27" y="237.5889">calcular_traspuesta(): Matriz</text></g><!--class Imprimir--><g id="elem_Imprimir"><rect codeLine="12" fill="#F1F1F1" height="96.8906" id="Imprimir" rx="2.5" ry="2.5" style="stroke:#181818;stroke-width:0.5;" width="189" x="270.5" y="148"/><ellipse cx="329.75" cy="164" fill="#ADD1B2" rx="11" ry="11" style="stroke:#181818;stroke-width:1.0;"/><path d="M332.0938,159.6719 C331.1563,159.2344 330.5625,159.0938 329.6875,159.0938 C327.0625,159.0938 325.0625,161.1719 325.0625,163.8906 L325.0625,165.0156 C325.0625,167.5938 327.1719,169.4844 330.0625,169.4844 C331.2813,169.4844 332.4375,169.1875 333.1875,168.6406 C333.7656,168.2344 334.0938,167.7813 334.0938,167.3906 C334.0938,166.9375 333.7031,166.5469 333.2344,166.5469 C333.0156,166.5469 332.8125,166.625 332.625,166.8125 C332.1719,167.2969 332.1719,167.2969 331.9844,167.3906 C331.5625,167.6563 330.875,167.7813 330.1094,167.7813 C328.0625,167.7813 326.7656,166.6875 326.7656,164.9844 L326.7656,163.8906 C326.7656,162.1094 328.0156,160.7969 329.75,160.7969 C330.3281,160.7969 330.9375,160.9531 331.4063,161.2031 C331.8906,161.4844 332.0625,161.7031 332.1563,162.1094 C332.2188,162.5156 332.25,162.6406 332.3906,162.7656 C332.5313,162.9063 332.7656,163.0156 332.9844,163.0156 C333.25,163.0156 333.5156,162.875 333.6875,162.6563 C333.7969,162.5 333.8281,162.3125 333.8281,161.8906 L333.8281,160.4688 C333.8281,160.0313 333.8125,159.9063 333.7188,159.75 C333.5625,159.4844 333.2813,159.3438 332.9844,159.3438 C332.6875,159.3438 332.4844,159.4375 332.2656,159.75 L332.0938,159.6719 Z " fill="#000000"/><text fill="#000000" font-family="sans-serif" font-size="14" lengthAdjust="spacing" textLength="62" x="350.25" y="168.8467">Imprimir</text><line style="stroke:#181818;stroke-width:0.5;" x1="271.5" x2="458.5" y1="180" y2="180"/><rect fill="none" height="6" style="stroke:#C82930;stroke-width:1.0;" width="6" x="278.5" y="190.6484"/><text fill="#000000" font-family="sans-serif" font-size="14" lengthAdjust="spacing" textLength="101" x="290.5" y="196.9951">matriz: Matriz</text><line style="stroke:#181818;stroke-width:0.5;" x1="271.5" x2="458.5" y1="204.2969" y2="204.2969"/><ellipse cx="281.5" cy="217.9453" fill="#84BE84" rx="3" ry="3" style="stroke:#038048;stroke-width:1.0;"/><text fill="#000000" font-family="sans-serif" font-size="14" lengthAdjust="spacing" textLength="163" x="290.5" y="221.292">__init__(matriz: Matriz)</text><ellipse cx="281.5" cy="234.2422" fill="#84BE84" rx="3" ry="3" style="stroke:#038048;stroke-width:1.0;"/><text fill="#000000" font-family="sans-serif" font-size="14" lengthAdjust="spacing" textLength="72" x="290.5" y="237.5889">imprimir()</text></g><!--class Lanzador--><g id="elem_Lanzador"><rect codeLine="18" fill="#F1F1F1" height="194.6719" id="Lanzador" rx="2.5" ry="2.5" style="stroke:#181818;stroke-width:0.5;" width="204" x="141" y="305"/><ellipse cx="206.25" cy="321" fill="#ADD1B2" rx="11" ry="11" style="stroke:#181818;stroke-width:1.0;"/><path d="M208.5938,316.6719 C207.6563,316.2344 207.0625,316.0938 206.1875,316.0938 C203.5625,316.0938 201.5625,318.1719 201.5625,320.8906 L201.5625,322.0156 C201.5625,324.5938 203.6719,326.4844 206.5625,326.4844 C207.7813,326.4844 208.9375,326.1875 209.6875,325.6406 C210.2656,325.2344 210.5938,324.7813 210.5938,324.3906 C210.5938,323.9375 210.2031,323.5469 209.7344,323.5469 C209.5156,323.5469 209.3125,323.625 209.125,323.8125 C208.6719,324.2969 208.6719,324.2969 208.4844,324.3906 C208.0625,324.6563 207.375,324.7813 206.6094,324.7813 C204.5625,324.7813 203.2656,323.6875 203.2656,321.9844 L203.2656,320.8906 C203.2656,319.1094 204.5156,317.7969 206.25,317.7969 C206.8281,317.7969 207.4375,317.9531 207.9063,318.2031 C208.3906,318.4844 208.5625,318.7031 208.6563,319.1094 C208.7188,319.5156 208.75,319.6406 208.8906,319.7656 C209.0313,319.9063 209.2656,320.0156 209.4844,320.0156 C209.75,320.0156 210.0156,319.875 210.1875,319.6563 C210.2969,319.5 210.3281,319.3125 210.3281,318.8906 L210.3281,317.4688 C210.3281,317.0313 210.3125,316.9063 210.2188,316.75 C210.0625,316.4844 209.7813,316.3438 209.4844,316.3438 C209.1875,316.3438 208.9844,316.4375 208.7656,316.75 L208.5938,316.6719 Z " fill="#000000"/><text fill="#000000" font-family="sans-serif" font-size="14" lengthAdjust="spacing" textLength="65" x="226.75" y="325.8467">Lanzador</text><line style="stroke:#181818;stroke-width:0.5;" x1="142" x2="344" y1="337" y2="337"/><rect fill="none" height="6" style="stroke:#C82930;stroke-width:1.0;" width="6" x="149" y="347.6484"/><text fill="#000000" font-family="sans-serif" font-size="14" lengthAdjust="spacing" textLength="178" x="161" y="353.9951">elementos: List[List[int]]</text><rect fill="none" height="6" style="stroke:#C82930;stroke-width:1.0;" width="6" x="149" y="363.9453"/><text fill="#000000" font-family="sans-serif" font-size="14" lengthAdjust="spacing" textLength="127" x="161" y="370.292">cantidad_filas: int</text><rect fill="none" height="6" style="stroke:#C82930;stroke-width:1.0;" width="6" x="149" y="380.2422"/><text fill="#000000" font-family="sans-serif" font-size="14" lengthAdjust="spacing" textLength="165" x="161" y="386.5889">cantidad_columnas: int</text><rect fill="none" height="6" style="stroke:#C82930;stroke-width:1.0;" width="6" x="149" y="396.5391"/><text fill="#000000" font-family="sans-serif" font-size="14" lengthAdjust="spacing" textLength="101" x="161" y="402.8857">matriz: Matriz</text><rect fill="none" height="6" style="stroke:#C82930;stroke-width:1.0;" width="6" x="149" y="412.8359"/><text fill="#000000" font-family="sans-serif" font-size="14" lengthAdjust="spacing" textLength="165" x="161" y="419.1826">traspuesta: Traspuesta</text><rect fill="none" height="6" style="stroke:#C82930;stroke-width:1.0;" width="6" x="149" y="429.1328"/><text fill="#000000" font-family="sans-serif" font-size="14" lengthAdjust="spacing" textLength="133" x="161" y="435.4795">imprimir: Imprimir</text><line style="stroke:#181818;stroke-width:0.5;" x1="142" x2="344" y1="442.7813" y2="442.7813"/><ellipse cx="152" cy="456.4297" fill="#84BE84" rx="3" ry="3" style="stroke:#038048;stroke-width:1.0;"/><text fill="#000000" font-family="sans-serif" font-size="14" lengthAdjust="spacing" textLength="62" x="161" y="459.7764">__init__()</text><ellipse cx="152" cy="472.7266" fill="#84BE84" rx="3" ry="3" style="stroke:#038048;stroke-width:1.0;"/><text fill="#000000" font-family="sans-serif" font-size="14" lengthAdjust="spacing" textLength="101" x="161" y="476.0732">crear_matriz()</text><ellipse cx="152" cy="489.0234" fill="#84BE84" rx="3" ry="3" style="stroke:#038048;stroke-width:1.0;"/><text fill="#000000" font-family="sans-serif" font-size="14" lengthAdjust="spacing" textLength="53" x="161" y="492.3701">lanzar()</text></g><!--reverse link Matriz to Traspuesta--><g id="link_Matriz_Traspuesta"><path codeLine="30" d="M206.1532,92.8971 C190.9102,111.2641 176.523,128.599 160.552,147.843 " fill="none" id="Matriz-backto-Traspuesta" style="stroke:#181818;stroke-width:1.0;"/><polygon fill="#181818" points="209.985,88.28,201.1593,92.6511,206.7919,92.1276,207.3154,97.7601,209.985,88.28" style="stroke:#181818;stroke-width:1.0;"/></g><!--reverse link Matriz to Imprimir--><g id="link_Matriz_Imprimir"><path codeLine="31" d="M279.8468,92.8971 C295.0898,111.2641 309.477,128.599 325.448,147.843 " fill="none" id="Matriz-backto-Imprimir" style="stroke:#181818;stroke-width:1.0;"/><polygon fill="#181818" points="276.015,88.28,278.6846,97.7601,279.2081,92.1276,284.8407,92.6511,276.015,88.28" style="stroke:#181818;stroke-width:1.0;"/></g><!--reverse link Traspuesta to Lanzador--><g id="link_Traspuesta_Lanzador"><path codeLine="32" d="M152.5294,250.2205 C163.2314,268.1165 172.745,284.024 185.162,304.788 " fill="none" id="Traspuesta-backto-Lanzador" style="stroke:#181818;stroke-width:1.0;"/><polygon fill="#181818" points="149.45,245.071,150.6362,254.8482,152.0162,249.3622,157.5021,250.7422,149.45,245.071" style="stroke:#181818;stroke-width:1.0;"/></g><!--reverse link Imprimir to Lanzador--><g id="link_Imprimir_Lanzador"><path codeLine="33" d="M333.4706,250.2205 C322.7686,268.1165 313.255,284.024 300.838,304.788 " fill="none" id="Imprimir-backto-Lanzador" style="stroke:#181818;stroke-width:1.0;"/><polygon fill="#181818" points="336.55,245.071,328.4979,250.7422,333.9838,249.3622,335.3638,254.8482,336.55,245.071" style="stroke:#181818;stroke-width:1.0;"/></g><!--SRC=[dL513i8W4BppYZssCNo0-06JUlDc3DbGJ3O1Qe1UDFvTYXHfl1Wl76PsPsS6PJ04E6BqT8S70-2WZRRQnIa862Z4Stx8nSibqJkGaXn5ARjcpgIHdZqPKrdkv37SPXqY5acRzKMvivNPSdqc5Her6_GoLgMkh-lrpi7UF5doVrwXijurrWTqTnmd_qiNFFbqaKOSvPNIje34R74rcTcwbleooU4JKZJLPMgrA6hMRQnIbzUfgxToWSoIeoGhlxldl9LlqAhTVDo2hsMmMdIBlW00]--></g></svg>